<svg xmlns="http://www.w3.org/2000/svg" xmlns:xlink="http://www.w3.org/1999/xlink" width="500" zoomAndPan="magnify" viewBox="0 0 375 374.999991" height="500" preserveAspectRatio="xMidYMid meet" version="1.0"><defs><g/><clipPath id="0a520d6fcd"><path d="M 61 63.265625 L 313.714844 63.265625 L 313.714844 216.265625 L 61 216.265625 Z M 61 63.265625 " clip-rule="nonzero"/></clipPath></defs><g clip-path="url(#0a520d6fcd)"><path fill="#f575a0" d="M 254.242188 89.816406 C 255.753906 97.429688 258.414062 115.191406 255.167969 134.167969 C 255.167969 134.175781 255.164062 134.1875 255.164062 134.199219 C 246.503906 136.332031 238.558594 139.503906 231.492188 143.660156 C 227.980469 145.726562 224.59375 148.078125 221.339844 150.710938 C 221.957031 146.566406 222.269531 142.449219 222.269531 138.371094 C 222.269531 129.496094 220.753906 120.3125 217.769531 111.039062 C 231.746094 99.152344 247.257812 92.453125 254.242188 89.816406 Z M 165.257812 110.886719 C 165.511719 110.167969 165.773438 109.460938 166.039062 108.753906 C 172.492188 91.605469 182.777344 78.246094 187.597656 72.5625 C 192.417969 78.242188 202.707031 91.597656 209.171875 108.8125 C 209.425781 109.496094 209.679688 110.179688 209.921875 110.871094 C 210.128906 111.457031 210.328125 112.042969 210.519531 112.628906 C 210.960938 113.960938 211.363281 115.292969 211.738281 116.621094 C 213.820312 124.023438 214.882812 131.316406 214.882812 138.371094 C 214.882812 145.28125 213.894531 152.328125 211.941406 159.472656 C 211.105469 162.546875 210.085938 165.636719 208.886719 168.742188 C 206.75 174.273438 204.054688 179.847656 200.792969 185.449219 C 198.394531 189.574219 195.960938 193.226562 193.742188 196.308594 C 192.800781 197.613281 191.898438 198.816406 191.054688 199.910156 C 190.605469 200.492188 190.171875 201.039062 189.757812 201.554688 C 189.542969 201.824219 189.332031 202.085938 189.128906 202.335938 C 189.128906 202.339844 189.125 202.34375 189.125 202.34375 C 188.570312 203.027344 188.054688 203.644531 187.59375 204.1875 C 187.5 204.082031 187.40625 203.96875 187.300781 203.84375 C 186.921875 203.394531 186.542969 202.933594 186.164062 202.46875 C 186.148438 202.453125 186.132812 202.433594 186.121094 202.414062 C 185.910156 202.160156 185.703125 201.902344 185.496094 201.640625 C 185.101562 201.148438 184.703125 200.644531 184.308594 200.136719 C 183.90625 199.617188 183.503906 199.097656 183.105469 198.566406 C 183.097656 198.554688 183.089844 198.546875 183.085938 198.535156 C 183 198.429688 182.917969 198.320312 182.835938 198.207031 L 182.714844 198.042969 C 182.578125 197.859375 182.4375 197.671875 182.296875 197.480469 C 182.292969 197.472656 182.289062 197.46875 182.28125 197.457031 C 182.1875 197.332031 182.09375 197.203125 181.988281 197.054688 C 181.839844 196.851562 181.691406 196.648438 181.542969 196.445312 C 180.371094 194.816406 179.214844 193.144531 178.109375 191.460938 C 178 191.292969 177.890625 191.125 177.78125 190.953125 C 177.777344 190.945312 177.769531 190.933594 177.761719 190.925781 C 177.65625 190.761719 177.550781 190.597656 177.4375 190.421875 L 177.40625 190.375 C 177.316406 190.238281 177.230469 190.101562 177.144531 189.964844 C 177.136719 189.949219 177.125 189.933594 177.117188 189.921875 C 177 189.738281 176.882812 189.554688 176.757812 189.355469 C 176.691406 189.25 176.625 189.140625 176.558594 189.035156 L 176.429688 188.832031 C 176.09375 188.289062 175.753906 187.734375 175.410156 187.164062 C 175.300781 186.988281 175.195312 186.808594 175.089844 186.628906 C 175.085938 186.621094 175.078125 186.613281 175.074219 186.601562 C 174.132812 185.023438 173.222656 183.421875 172.375 181.847656 C 172.261719 181.640625 172.152344 181.429688 172.039062 181.222656 L 171.382812 179.964844 C 170.789062 178.816406 170.253906 177.738281 169.742188 176.664062 L 169.660156 176.5 C 169.59375 176.355469 169.523438 176.210938 169.449219 176.054688 C 168.28125 173.570312 167.21875 171.074219 166.269531 168.59375 C 165.796875 167.371094 165.355469 166.148438 164.941406 164.933594 C 164.9375 164.925781 164.9375 164.917969 164.933594 164.910156 C 164.863281 164.707031 164.792969 164.5 164.726562 164.300781 C 164.371094 163.230469 164.039062 162.171875 163.738281 161.144531 C 163.589844 160.644531 163.449219 160.144531 163.308594 159.640625 C 163.285156 159.554688 163.261719 159.464844 163.238281 159.378906 C 163.1875 159.195312 163.140625 159.015625 163.09375 158.835938 L 163.054688 158.691406 C 162.996094 158.476562 162.941406 158.265625 162.882812 158.042969 C 162.757812 157.546875 162.632812 157.050781 162.515625 156.546875 C 161.925781 154.082031 161.453125 151.625 161.105469 149.222656 C 161.078125 149.042969 161.054688 148.867188 161.03125 148.679688 C 160.785156 146.941406 160.601562 145.164062 160.480469 143.390625 C 160.445312 142.917969 160.421875 142.484375 160.402344 142.066406 C 160.402344 142.027344 160.398438 141.992188 160.394531 141.957031 C 160.390625 141.894531 160.390625 141.832031 160.382812 141.75 C 160.359375 141.25 160.34375 140.730469 160.332031 140.207031 C 160.332031 140.199219 160.332031 140.191406 160.332031 140.179688 C 160.3125 139.628906 160.304688 139.039062 160.304688 138.371094 C 160.304688 131.296875 161.371094 123.980469 163.46875 116.554688 C 163.839844 115.230469 164.246094 113.902344 164.6875 112.570312 C 164.871094 112.007812 165.0625 111.449219 165.257812 110.886719 Z M 120.097656 134.167969 C 116.855469 115.1875 119.519531 97.421875 121.03125 89.8125 C 127.992188 92.433594 143.441406 99.101562 157.4375 110.984375 C 154.441406 120.277344 152.917969 129.480469 152.917969 138.371094 C 152.917969 139.105469 152.925781 139.765625 152.945312 140.382812 C 152.957031 140.964844 152.976562 141.546875 153.003906 142.113281 C 153.011719 142.222656 153.015625 142.335938 153.023438 142.445312 C 153.046875 142.914062 153.074219 143.394531 153.109375 143.902344 C 153.242188 145.84375 153.445312 147.792969 153.710938 149.695312 C 153.738281 149.898438 153.769531 150.101562 153.796875 150.292969 C 153.8125 150.414062 153.835938 150.53125 153.851562 150.648438 C 150.621094 148.042969 147.261719 145.710938 143.777344 143.660156 C 136.714844 139.503906 128.765625 136.332031 120.105469 134.199219 C 120.101562 134.1875 120.101562 134.175781 120.097656 134.167969 Z M 175.761719 207.949219 C 175.617188 207.96875 175.472656 207.984375 175.328125 208 C 175.328125 208 175.304688 208.003906 175.300781 208.003906 L 175.207031 208.011719 C 174.957031 208.039062 174.707031 208.066406 174.453125 208.09375 C 174.441406 208.09375 174.429688 208.09375 174.417969 208.097656 C 174.265625 208.113281 174.109375 208.128906 173.953125 208.144531 C 173.941406 208.144531 173.933594 208.144531 173.925781 208.148438 C 173.828125 208.15625 173.730469 208.164062 173.632812 208.171875 C 171.488281 208.382812 169.308594 208.546875 167.140625 208.652344 C 166.941406 208.664062 166.738281 208.671875 166.535156 208.679688 C 166.523438 208.683594 166.511719 208.683594 166.5 208.683594 C 166.308594 208.691406 166.117188 208.703125 165.902344 208.707031 C 165.722656 208.714844 165.539062 208.722656 165.359375 208.730469 C 165.34375 208.730469 165.328125 208.730469 165.3125 208.730469 C 165.09375 208.738281 164.875 208.746094 164.640625 208.753906 C 164.515625 208.757812 164.390625 208.761719 164.265625 208.761719 L 164.027344 208.769531 C 163.386719 208.785156 162.738281 208.800781 162.082031 208.804688 C 162.078125 208.804688 162.050781 208.804688 162.046875 208.804688 C 161.847656 208.808594 161.648438 208.8125 161.445312 208.8125 C 161.433594 208.8125 161.425781 208.8125 161.417969 208.8125 C 159.574219 208.820312 157.738281 208.792969 155.949219 208.730469 C 155.71875 208.71875 155.484375 208.710938 155.242188 208.703125 C 155.082031 208.691406 154.921875 208.6875 154.761719 208.679688 L 154.527344 208.667969 C 154.296875 208.65625 154.0625 208.644531 153.828125 208.632812 C 152.53125 208.558594 151.328125 208.476562 150.148438 208.375 L 149.996094 208.359375 C 149.828125 208.347656 149.660156 208.332031 149.476562 208.3125 C 145.398438 207.941406 141.40625 207.355469 137.613281 206.570312 C 137.605469 206.566406 137.59375 206.566406 137.585938 206.5625 C 137.375 206.519531 137.164062 206.476562 136.953125 206.433594 C 135.855469 206.195312 134.773438 205.945312 133.734375 205.683594 C 133.230469 205.558594 132.726562 205.429688 132.222656 205.292969 C 131.949219 205.222656 131.679688 205.144531 131.417969 205.074219 L 131.285156 205.035156 C 131.070312 204.976562 130.855469 204.914062 130.628906 204.851562 C 130.136719 204.707031 129.648438 204.5625 129.15625 204.410156 C 126.730469 203.667969 124.371094 202.828125 122.128906 201.914062 C 121.960938 201.84375 121.796875 201.777344 121.625 201.703125 C 120 201.03125 118.375 200.289062 116.789062 199.496094 C 116.355469 199.285156 115.96875 199.085938 115.605469 198.894531 C 115.578125 198.878906 115.546875 198.863281 115.515625 198.847656 C 115.460938 198.820312 115.402344 198.789062 115.324219 198.75 C 114.878906 198.515625 114.425781 198.269531 113.972656 198.015625 C 113.960938 198.007812 113.953125 198.003906 113.945312 198 C 113.460938 197.734375 112.945312 197.441406 112.375 197.105469 C 104.734375 192.609375 97.609375 186.484375 91.203125 178.902344 C 78.777344 164.199219 72.0625 147.546875 69.503906 140.214844 C 77.140625 138.890625 94.929688 136.671875 113.792969 140.367188 C 113.804688 140.371094 113.8125 140.371094 113.824219 140.375 C 115.164062 140.636719 116.480469 140.925781 117.78125 141.238281 C 119.164062 141.570312 120.523438 141.929688 121.863281 142.320312 C 128.464844 144.226562 134.550781 146.808594 140.035156 150.03125 C 145.953125 153.511719 151.492188 157.90625 156.632812 163.167969 C 156.640625 163.191406 156.644531 163.210938 156.652344 163.230469 C 156.976562 164.332031 157.332031 165.476562 157.714844 166.632812 C 157.792969 166.863281 157.871094 167.097656 157.953125 167.328125 C 159.285156 171.257812 160.90625 175.25 162.761719 179.191406 C 162.839844 179.359375 162.917969 179.523438 162.996094 179.691406 L 163.070312 179.847656 C 163.617188 180.992188 164.1875 182.140625 164.820312 183.363281 L 165.519531 184.699219 C 165.636719 184.917969 165.753906 185.140625 165.871094 185.355469 C 166.769531 187.019531 167.726562 188.707031 168.71875 190.375 C 168.839844 190.582031 168.964844 190.785156 169.082031 190.980469 C 169.441406 191.574219 169.800781 192.160156 170.164062 192.75 L 170.285156 192.945312 C 170.367188 193.070312 170.445312 193.199219 170.515625 193.308594 C 170.640625 193.503906 170.761719 193.699219 170.886719 193.898438 C 170.992188 194.0625 171.097656 194.226562 171.203125 194.386719 L 171.226562 194.421875 C 171.34375 194.613281 171.464844 194.800781 171.589844 194.984375 C 171.707031 195.164062 171.820312 195.347656 171.9375 195.519531 C 173.152344 197.371094 174.425781 199.210938 175.710938 200.988281 C 175.8125 201.125 175.910156 201.265625 176.007812 201.398438 C 176.121094 201.554688 176.234375 201.710938 176.347656 201.859375 C 176.496094 202.0625 176.644531 202.265625 176.792969 202.460938 L 176.90625 202.613281 C 177.007812 202.753906 177.109375 202.890625 177.210938 203.023438 C 178.261719 204.417969 179.328125 205.777344 180.394531 207.085938 C 180.453125 207.160156 180.515625 207.234375 180.574219 207.308594 C 179.019531 207.546875 177.417969 207.761719 175.792969 207.945312 C 175.78125 207.949219 175.769531 207.949219 175.761719 207.949219 Z M 261.296875 198.015625 C 260.84375 198.269531 260.382812 198.515625 259.925781 198.757812 C 259.871094 198.789062 259.8125 198.816406 259.757812 198.847656 C 259.726562 198.859375 259.695312 198.878906 259.664062 198.894531 C 259.296875 199.085938 258.914062 199.285156 258.476562 199.5 C 256.894531 200.289062 255.269531 201.03125 253.632812 201.707031 C 253.472656 201.777344 253.308594 201.84375 253.128906 201.917969 C 250.894531 202.828125 248.539062 203.667969 246.113281 204.414062 C 245.621094 204.5625 245.132812 204.707031 244.628906 204.851562 C 244.414062 204.914062 244.203125 204.972656 243.992188 205.035156 L 243.863281 205.070312 C 243.589844 205.144531 243.316406 205.222656 243.046875 205.292969 C 242.542969 205.429688 242.039062 205.558594 241.527344 205.683594 C 240.496094 205.945312 239.414062 206.195312 238.320312 206.429688 C 238.105469 206.476562 237.894531 206.519531 237.683594 206.5625 C 237.675781 206.566406 237.667969 206.566406 237.65625 206.570312 C 233.863281 207.355469 229.871094 207.941406 225.777344 208.316406 C 225.605469 208.332031 225.4375 208.347656 225.273438 208.359375 L 225.117188 208.375 C 223.941406 208.476562 222.738281 208.558594 221.441406 208.632812 C 221.210938 208.644531 220.980469 208.65625 220.753906 208.667969 L 220.507812 208.679688 C 220.347656 208.6875 220.191406 208.691406 220.027344 208.703125 C 219.792969 208.710938 219.554688 208.71875 219.320312 208.730469 C 217.53125 208.792969 215.695312 208.824219 213.851562 208.8125 C 213.84375 208.8125 213.835938 208.8125 213.832031 208.8125 C 213.828125 208.8125 213.828125 208.8125 213.820312 208.8125 C 213.621094 208.8125 213.421875 208.808594 213.21875 208.804688 C 213.21875 208.804688 213.195312 208.804688 213.191406 208.804688 C 212.53125 208.800781 211.882812 208.785156 211.261719 208.769531 L 211.003906 208.761719 C 210.878906 208.761719 210.753906 208.757812 210.609375 208.75 C 210.390625 208.746094 210.175781 208.738281 209.960938 208.730469 C 209.941406 208.730469 209.925781 208.730469 209.910156 208.730469 C 209.730469 208.722656 209.550781 208.714844 209.347656 208.707031 C 209.152344 208.703125 208.960938 208.691406 208.769531 208.683594 C 208.757812 208.683594 208.746094 208.683594 208.734375 208.679688 C 208.53125 208.671875 208.328125 208.664062 208.125 208.652344 C 205.960938 208.546875 203.78125 208.382812 201.640625 208.171875 C 201.539062 208.164062 201.441406 208.15625 201.34375 208.148438 C 201.335938 208.144531 201.324219 208.144531 201.320312 208.144531 C 201.164062 208.128906 201.003906 208.113281 200.851562 208.097656 C 200.839844 208.09375 200.828125 208.09375 200.816406 208.09375 C 200.566406 208.066406 200.3125 208.039062 200.0625 208.011719 L 199.9375 208 C 199.792969 207.984375 199.648438 207.96875 199.511719 207.949219 C 199.5 207.949219 199.488281 207.949219 199.476562 207.945312 C 197.828125 207.757812 196.203125 207.539062 194.628906 207.296875 C 194.671875 207.242188 194.71875 207.1875 194.761719 207.132812 C 196.128906 205.460938 197.722656 203.417969 199.445312 201.039062 C 201.863281 197.707031 204.53125 193.71875 207.179688 189.167969 C 212.234375 180.480469 216.027344 171.824219 218.550781 163.253906 C 223.714844 157.953125 229.285156 153.535156 235.234375 150.03125 C 240.71875 146.808594 246.808594 144.226562 253.40625 142.320312 C 254.746094 141.929688 256.105469 141.570312 257.488281 141.238281 C 258.789062 140.925781 260.105469 140.636719 261.445312 140.375 C 261.457031 140.371094 261.46875 140.371094 261.476562 140.367188 C 280.34375 136.671875 298.128906 138.890625 305.765625 140.214844 C 303.207031 147.546875 296.488281 164.199219 284.066406 178.902344 C 277.660156 186.484375 270.539062 192.609375 262.898438 197.105469 C 262.324219 197.441406 261.808594 197.734375 261.324219 198 C 261.316406 198.003906 261.308594 198.007812 261.296875 198.015625 Z M 313.742188 135.523438 C 313.238281 134.664062 312.402344 134.042969 311.433594 133.804688 C 310.46875 133.570312 288.304688 128.300781 262.894531 132.597656 C 266.585938 107.035156 260.765625 84.953125 260.507812 83.992188 C 260.246094 83.027344 259.605469 82.207031 258.730469 81.722656 C 257.859375 81.234375 256.828125 81.125 255.871094 81.414062 C 254.945312 81.695312 234.355469 88.042969 215.09375 103.652344 C 205.828125 80.664062 190.917969 65.121094 190.246094 64.429688 C 189.550781 63.710938 188.59375 63.304688 187.59375 63.304688 C 186.59375 63.304688 185.636719 63.710938 184.941406 64.429688 C 184.269531 65.121094 169.382812 80.644531 160.113281 103.601562 C 140.871094 88.03125 120.320312 81.695312 119.398438 81.414062 C 118.445312 81.125 117.410156 81.234375 116.535156 81.722656 C 115.664062 82.207031 115.023438 83.027344 114.761719 83.992188 C 114.503906 84.953125 108.683594 107.035156 112.375 132.597656 C 86.960938 128.304688 64.800781 133.574219 63.835938 133.804688 C 62.867188 134.042969 62.03125 134.664062 61.527344 135.523438 C 61.019531 136.386719 60.882812 137.417969 61.148438 138.382812 C 61.421875 139.375 68.058594 162.957031 85.5625 183.675781 C 92.507812 191.898438 100.269531 198.558594 108.628906 203.476562 C 109.261719 203.847656 109.832031 204.175781 110.378906 204.472656 C 110.886719 204.753906 111.394531 205.035156 111.902344 205.300781 C 112 205.347656 112.09375 205.398438 112.191406 205.449219 C 112.601562 205.664062 113.027344 205.882812 113.496094 206.113281 C 115.230469 206.980469 117.015625 207.792969 118.789062 208.53125 C 118.976562 208.609375 119.167969 208.6875 119.347656 208.761719 C 121.785156 209.753906 124.355469 210.667969 126.984375 211.476562 C 127.515625 211.640625 128.054688 211.800781 128.582031 211.953125 C 128.816406 212.019531 129.054688 212.085938 129.289062 212.152344 L 129.429688 212.191406 C 129.726562 212.273438 130.023438 212.355469 130.320312 212.4375 C 130.863281 212.582031 131.40625 212.722656 131.941406 212.855469 C 133.058594 213.136719 134.222656 213.40625 135.414062 213.660156 C 135.652344 213.710938 135.890625 213.761719 136.125 213.808594 C 140.1875 214.648438 144.453125 215.277344 148.789062 215.675781 C 148.980469 215.695312 149.175781 215.710938 149.371094 215.726562 L 149.511719 215.738281 C 150.769531 215.847656 152.050781 215.9375 153.425781 216.011719 C 153.667969 216.027344 153.914062 216.039062 154.15625 216.050781 C 154.160156 216.050781 154.183594 216.050781 154.1875 216.050781 L 154.410156 216.0625 C 154.585938 216.070312 154.761719 216.078125 154.941406 216.085938 C 155.1875 216.097656 155.433594 216.105469 155.679688 216.117188 C 157.300781 216.175781 158.960938 216.207031 160.628906 216.207031 C 160.902344 216.207031 161.171875 216.203125 161.445312 216.203125 C 161.675781 216.203125 161.90625 216.199219 162.152344 216.199219 C 162.84375 216.191406 163.53125 216.175781 164.226562 216.160156 L 164.457031 216.152344 C 164.605469 216.148438 164.753906 216.144531 164.882812 216.140625 C 165.113281 216.132812 165.347656 216.128906 165.582031 216.117188 C 165.796875 216.113281 166.007812 216.101562 166.203125 216.09375 C 166.429688 216.085938 166.652344 216.078125 166.878906 216.066406 C 167.089844 216.054688 167.300781 216.046875 167.507812 216.035156 C 169.890625 215.917969 172.292969 215.738281 174.652344 215.503906 C 174.839844 215.484375 175.027344 215.464844 175.210938 215.445312 C 175.480469 215.417969 175.746094 215.390625 176.007812 215.359375 L 176.117188 215.347656 C 176.296875 215.328125 176.472656 215.3125 176.644531 215.289062 C 179.066406 215.011719 181.441406 214.675781 183.707031 214.289062 L 183.75 214.28125 C 183.941406 214.25 184.125 214.21875 184.308594 214.1875 C 184.421875 214.164062 184.535156 214.144531 184.644531 214.128906 L 184.664062 214.121094 C 184.835938 214.089844 185.003906 214.0625 185.164062 214.03125 C 185.175781 214.03125 185.1875 214.03125 185.199219 214.027344 C 186.269531 213.828125 187.089844 213.660156 187.632812 213.542969 C 188.179688 213.660156 189 213.828125 190.070312 214.027344 C 190.082031 214.03125 190.097656 214.03125 190.105469 214.03125 C 190.265625 214.0625 190.433594 214.089844 190.617188 214.125 C 190.730469 214.144531 190.847656 214.164062 190.960938 214.183594 C 191.140625 214.21875 191.324219 214.25 191.511719 214.28125 L 191.5625 214.292969 C 193.828125 214.675781 196.203125 215.011719 198.621094 215.289062 C 198.792969 215.3125 198.96875 215.328125 199.148438 215.347656 L 199.261719 215.359375 C 199.523438 215.390625 199.789062 215.417969 200.058594 215.445312 C 200.242188 215.464844 200.429688 215.484375 200.617188 215.503906 C 202.976562 215.738281 205.378906 215.917969 207.761719 216.035156 C 207.96875 216.046875 208.179688 216.054688 208.390625 216.066406 C 208.617188 216.078125 208.839844 216.085938 209.050781 216.09375 C 209.261719 216.101562 209.476562 216.113281 209.6875 216.117188 C 209.921875 216.128906 210.15625 216.132812 210.367188 216.140625 C 210.511719 216.144531 210.660156 216.148438 210.8125 216.152344 L 211.0625 216.160156 C 211.738281 216.175781 212.425781 216.191406 213.128906 216.199219 C 213.359375 216.199219 213.59375 216.203125 213.824219 216.203125 C 214.097656 216.203125 214.367188 216.207031 214.640625 216.207031 C 216.308594 216.207031 217.96875 216.175781 219.589844 216.117188 C 219.835938 216.105469 220.085938 216.097656 220.335938 216.085938 C 220.507812 216.078125 220.683594 216.070312 220.859375 216.0625 L 221.128906 216.050781 C 221.367188 216.039062 221.609375 216.027344 221.84375 216.011719 C 223.222656 215.9375 224.5 215.847656 225.753906 215.738281 L 225.898438 215.726562 C 226.09375 215.710938 226.289062 215.695312 226.46875 215.675781 C 230.816406 215.277344 235.082031 214.652344 239.140625 213.808594 C 239.382812 213.761719 239.621094 213.710938 239.863281 213.660156 C 241.046875 213.40625 242.210938 213.136719 243.320312 212.855469 C 243.867188 212.722656 244.40625 212.582031 244.953125 212.4375 C 245.246094 212.355469 245.542969 212.273438 245.851562 212.191406 L 245.988281 212.152344 C 246.21875 212.085938 246.453125 212.019531 246.675781 211.957031 C 247.210938 211.800781 247.75 211.640625 248.28125 211.480469 C 250.914062 210.667969 253.484375 209.753906 255.90625 208.765625 C 256.097656 208.691406 256.289062 208.609375 256.472656 208.535156 C 258.25 207.796875 260.039062 206.980469 261.769531 206.117188 C 262.238281 205.882812 262.667969 205.664062 263.078125 205.449219 C 263.175781 205.398438 263.273438 205.347656 263.375 205.292969 C 263.871094 205.035156 264.378906 204.761719 264.890625 204.472656 C 265.433594 204.175781 266.011719 203.847656 266.636719 203.476562 C 275.003906 198.558594 282.761719 191.898438 289.710938 183.675781 C 307.207031 162.957031 313.847656 139.375 314.121094 138.378906 C 314.386719 137.417969 314.25 136.386719 313.742188 135.523438 " fill-opacity="1" fill-rule="nonzero"/></g><g fill="#f575a0" fill-opacity="1"><g transform="translate(60.340291, 281.125234)"><g><path d="M 23.953125 0 L 15.828125 -15.078125 L 14.609375 -15.078125 L 14.609375 0 L 3.25 0 L 3.25 -40.890625 L 21.171875 -40.890625 C 24.453125 -40.890625 27.234375 -40.316406 29.515625 -39.171875 C 31.796875 -38.035156 33.515625 -36.472656 34.671875 -34.484375 C 35.835938 -32.492188 36.421875 -30.257812 36.421875 -27.78125 C 36.421875 -25 35.65625 -22.550781 34.125 -20.4375 C 32.601562 -18.332031 30.375 -16.835938 27.4375 -15.953125 L 36.65625 0 Z M 14.609375 -22.859375 L 20.234375 -22.859375 C 21.785156 -22.859375 22.945312 -23.222656 23.71875 -23.953125 C 24.488281 -24.691406 24.875 -25.753906 24.875 -27.140625 C 24.875 -28.453125 24.476562 -29.484375 23.6875 -30.234375 C 22.894531 -30.992188 21.742188 -31.375 20.234375 -31.375 L 14.609375 -31.375 Z M 14.609375 -22.859375 "/></g></g></g><g fill="#f575a0" fill-opacity="1"><g transform="translate(96.877743, 281.125234)"><g><path d="M 8.984375 -35.546875 C 6.972656 -35.546875 5.359375 -36.097656 4.140625 -37.203125 C 2.921875 -38.304688 2.3125 -39.691406 2.3125 -41.359375 C 2.3125 -43.054688 2.921875 -44.460938 4.140625 -45.578125 C 5.359375 -46.703125 6.972656 -47.265625 8.984375 -47.265625 C 10.960938 -47.265625 12.5625 -46.703125 13.78125 -45.578125 C 15 -44.460938 15.609375 -43.054688 15.609375 -41.359375 C 15.609375 -39.691406 15 -38.304688 13.78125 -37.203125 C 12.5625 -36.097656 10.960938 -35.546875 8.984375 -35.546875 Z M 14.609375 -32.53125 L 14.609375 0 L 3.25 0 L 3.25 -32.53125 Z M 14.609375 -32.53125 "/></g></g></g><g fill="#f575a0" fill-opacity="1"><g transform="translate(112.942564, 281.125234)"><g><path d="M 23.609375 0 L 14.609375 -13.34375 L 14.609375 0 L 3.25 0 L 3.25 -42.921875 L 14.609375 -42.921875 L 14.609375 -19.78125 L 23.609375 -32.53125 L 37.234375 -32.53125 L 24.421875 -16.1875 L 37.46875 0 Z M 23.609375 0 "/></g></g></g><g fill="#f575a0" fill-opacity="1"><g transform="translate(148.668069, 281.125234)"><g><path d="M 1.390625 -16.296875 C 1.390625 -19.660156 2 -22.597656 3.21875 -25.109375 C 4.4375 -27.628906 6.097656 -29.5625 8.203125 -30.90625 C 10.316406 -32.257812 12.664062 -32.9375 15.25 -32.9375 C 17.5 -32.9375 19.429688 -32.492188 21.046875 -31.609375 C 22.671875 -30.722656 23.929688 -29.523438 24.828125 -28.015625 L 24.828125 -32.53125 L 36.1875 -32.53125 L 36.1875 0 L 24.828125 0 L 24.828125 -4.53125 C 23.929688 -3.019531 22.660156 -1.816406 21.015625 -0.921875 C 19.378906 -0.0351562 17.457031 0.40625 15.25 0.40625 C 12.664062 0.40625 10.316406 -0.269531 8.203125 -1.625 C 6.097656 -2.976562 4.4375 -4.921875 3.21875 -7.453125 C 2 -9.984375 1.390625 -12.929688 1.390625 -16.296875 Z M 24.828125 -16.296875 C 24.828125 -18.390625 24.253906 -20.035156 23.109375 -21.234375 C 21.972656 -22.429688 20.570312 -23.03125 18.90625 -23.03125 C 17.207031 -23.03125 15.796875 -22.4375 14.671875 -21.25 C 13.546875 -20.070312 12.984375 -18.421875 12.984375 -16.296875 C 12.984375 -14.210938 13.546875 -12.5625 14.671875 -11.34375 C 15.796875 -10.125 17.207031 -9.515625 18.90625 -9.515625 C 20.570312 -9.515625 21.972656 -10.113281 23.109375 -11.3125 C 24.253906 -12.507812 24.828125 -14.171875 24.828125 -16.296875 Z M 24.828125 -16.296875 "/></g></g></g><g fill="#f575a0" fill-opacity="1"><g transform="translate(186.307449, 281.125234)"><g/></g></g><g fill="#f575a0" fill-opacity="1"><g transform="translate(195.586708, 281.125234)"><g><path d="M 29.109375 -6.671875 L 14.609375 -6.671875 L 12.40625 0 L 0.46875 0 L 15.375 -40.890625 L 28.484375 -40.890625 L 43.328125 0 L 31.3125 0 Z M 26.28125 -15.375 L 21.859375 -28.59375 L 17.515625 -15.375 Z M 26.28125 -15.375 "/></g></g></g><g fill="#f575a0" fill-opacity="1"><g transform="translate(237.575798, 281.125234)"><g><path d="M 14.609375 -28.015625 C 15.503906 -29.523438 16.765625 -30.722656 18.390625 -31.609375 C 20.015625 -32.492188 21.925781 -32.9375 24.125 -32.9375 C 26.71875 -32.9375 29.066406 -32.257812 31.171875 -30.90625 C 33.285156 -29.5625 34.945312 -27.628906 36.15625 -25.109375 C 37.375 -22.597656 37.984375 -19.660156 37.984375 -16.296875 C 37.984375 -12.929688 37.375 -9.984375 36.15625 -7.453125 C 34.945312 -4.921875 33.285156 -2.976562 31.171875 -1.625 C 29.066406 -0.269531 26.71875 0.40625 24.125 0.40625 C 21.925781 0.40625 20.023438 -0.0351562 18.421875 -0.921875 C 16.816406 -1.816406 15.546875 -3.019531 14.609375 -4.53125 L 14.609375 15.546875 L 3.25 15.546875 L 3.25 -32.53125 L 14.609375 -32.53125 Z M 26.453125 -16.296875 C 26.453125 -18.421875 25.878906 -20.070312 24.734375 -21.25 C 23.597656 -22.4375 22.195312 -23.03125 20.53125 -23.03125 C 18.863281 -23.03125 17.457031 -22.429688 16.3125 -21.234375 C 15.175781 -20.035156 14.609375 -18.390625 14.609375 -16.296875 C 14.609375 -14.171875 15.175781 -12.507812 16.3125 -11.3125 C 17.457031 -10.113281 18.863281 -9.515625 20.53125 -9.515625 C 22.195312 -9.515625 23.597656 -10.125 24.734375 -11.34375 C 25.878906 -12.5625 26.453125 -14.210938 26.453125 -16.296875 Z M 26.453125 -16.296875 "/></g></g></g><g fill="#f575a0" fill-opacity="1"><g transform="translate(275.215185, 281.125234)"><g><path d="M 14.609375 -28.015625 C 15.503906 -29.523438 16.765625 -30.722656 18.390625 -31.609375 C 20.015625 -32.492188 21.925781 -32.9375 24.125 -32.9375 C 26.71875 -32.9375 29.066406 -32.257812 31.171875 -30.90625 C 33.285156 -29.5625 34.945312 -27.628906 36.15625 -25.109375 C 37.375 -22.597656 37.984375 -19.660156 37.984375 -16.296875 C 37.984375 -12.929688 37.375 -9.984375 36.15625 -7.453125 C 34.945312 -4.921875 33.285156 -2.976562 31.171875 -1.625 C 29.066406 -0.269531 26.71875 0.40625 24.125 0.40625 C 21.925781 0.40625 20.023438 -0.0351562 18.421875 -0.921875 C 16.816406 -1.816406 15.546875 -3.019531 14.609375 -4.53125 L 14.609375 15.546875 L 3.25 15.546875 L 3.25 -32.53125 L 14.609375 -32.53125 Z M 26.453125 -16.296875 C 26.453125 -18.421875 25.878906 -20.070312 24.734375 -21.25 C 23.597656 -22.4375 22.195312 -23.03125 20.53125 -23.03125 C 18.863281 -23.03125 17.457031 -22.429688 16.3125 -21.234375 C 15.175781 -20.035156 14.609375 -18.390625 14.609375 -16.296875 C 14.609375 -14.171875 15.175781 -12.507812 16.3125 -11.3125 C 17.457031 -10.113281 18.863281 -9.515625 20.53125 -9.515625 C 22.195312 -9.515625 23.597656 -10.125 24.734375 -11.34375 C 25.878906 -12.5625 26.453125 -14.210938 26.453125 -16.296875 Z M 26.453125 -16.296875 "/></g></g></g></svg>